<?xml version="1.0" standalone="no"?>
<!DOCTYPE svg PUBLIC "-//W3C//DTD SVG 20010904//EN"
 "http://www.w3.org/TR/2001/REC-SVG-20010904/DTD/svg10.dtd">
<svg version="1.0" xmlns="http://www.w3.org/2000/svg"
 width="150.000000pt" height="150.000000pt" viewBox="0 0 150.000000 150.000000"
 preserveAspectRatio="xMidYMid meet">
<metadata>
Created by potrace 1.14, written by Peter Selinger 2001-2017
</metadata>
<g transform="translate(0.000000,150.000000) scale(0.100000,-0.100000)"
fill="#000000" stroke="none">
<path d="M946 1399 c-29 -8 -96 -50 -96 -60 0 -4 -17 -3 -37 0 -90 15 -224 -6
-323 -52 -112 -52 -206 -134 -274 -239 -73 -115 -96 -205 -92 -363 2 -108 6
-128 34 -198 71 -173 197 -302 361 -367 71 -28 93 -32 206 -37 270 -13 504
134 608 382 38 91 51 172 44 288 -8 139 -56 264 -137 357 -31 35 -39 53 -38
80 2 82 -32 144 -104 188 -37 23 -108 33 -152 21z"/>
</g>
</svg>
